G04 #@! TF.FileFunction,Copper,L2,Bot,Signal*
%FSLAX46Y46*%
G04 Gerber Fmt 4.6, Leading zero omitted, Abs format (unit mm)*
G04 Created by KiCad (PCBNEW 4.0.0-2.201511301921+6191~38~ubuntu15.10.1-stable) date Tue 01 Dec 2015 16:42:38 GMT*
%MOMM*%
G01*
G04 APERTURE LIST*
%ADD10C,0.100000*%
%ADD11C,1.700000*%
%ADD12C,1.600000*%
%ADD13C,1.400000*%
%ADD14C,2.999740*%
%ADD15C,0.254000*%
G04 APERTURE END LIST*
D10*
D11*
X237490000Y-116078000D03*
D12*
X247523000Y-119888000D03*
X250063000Y-119888000D03*
X240538000Y-120269000D03*
X243078000Y-120269000D03*
X237998000Y-120269000D03*
D13*
X252857000Y-119888000D03*
X255397000Y-119888000D03*
D12*
X256540000Y-115951000D03*
X240792000Y-115951000D03*
X256540000Y-94234000D03*
X240792000Y-94234000D03*
X237871000Y-111506000D03*
X237871000Y-98806000D03*
X255905000Y-101854000D03*
X255905000Y-108458000D03*
D14*
X258953000Y-120015000D03*
X236855000Y-93853000D03*
D15*
G36*
X255150995Y-100600136D02*
X255076861Y-100846255D01*
X255905000Y-101674395D01*
X256733139Y-100846255D01*
X256659005Y-100600136D01*
X256614113Y-100584000D01*
X259207000Y-100584000D01*
X259207000Y-117880350D01*
X258530211Y-117879760D01*
X257745273Y-118204090D01*
X257144200Y-118804114D01*
X256818501Y-119588485D01*
X256817760Y-120437789D01*
X257142090Y-121222727D01*
X257204254Y-121285000D01*
X250439754Y-121285000D01*
X250874800Y-121105243D01*
X251278824Y-120701923D01*
X251497750Y-120174691D01*
X251497769Y-120152383D01*
X251521769Y-120152383D01*
X251724582Y-120643229D01*
X252099796Y-121019098D01*
X252590287Y-121222768D01*
X253121383Y-121223231D01*
X253612229Y-121020418D01*
X253809716Y-120823275D01*
X254641331Y-120823275D01*
X254703169Y-121059042D01*
X255204122Y-121235419D01*
X255734440Y-121206664D01*
X256090831Y-121059042D01*
X256152669Y-120823275D01*
X255397000Y-120067605D01*
X254641331Y-120823275D01*
X253809716Y-120823275D01*
X253988098Y-120645204D01*
X254120316Y-120326788D01*
X254225958Y-120581831D01*
X254461725Y-120643669D01*
X255217395Y-119888000D01*
X255576605Y-119888000D01*
X256332275Y-120643669D01*
X256568042Y-120581831D01*
X256744419Y-120080878D01*
X256715664Y-119550560D01*
X256568042Y-119194169D01*
X256332275Y-119132331D01*
X255576605Y-119888000D01*
X255217395Y-119888000D01*
X254461725Y-119132331D01*
X254225958Y-119194169D01*
X254128804Y-119470111D01*
X253989418Y-119132771D01*
X253809686Y-118952725D01*
X254641331Y-118952725D01*
X255397000Y-119708395D01*
X256152669Y-118952725D01*
X256090831Y-118716958D01*
X255589878Y-118540581D01*
X255059560Y-118569336D01*
X254703169Y-118716958D01*
X254641331Y-118952725D01*
X253809686Y-118952725D01*
X253614204Y-118756902D01*
X253123713Y-118553232D01*
X252592617Y-118552769D01*
X252101771Y-118755582D01*
X251725902Y-119130796D01*
X251522232Y-119621287D01*
X251521769Y-120152383D01*
X251497769Y-120152383D01*
X251498248Y-119603813D01*
X251280243Y-119076200D01*
X250876923Y-118672176D01*
X250349691Y-118453250D01*
X249778813Y-118452752D01*
X249251200Y-118670757D01*
X248847176Y-119074077D01*
X248799552Y-119188768D01*
X248776864Y-119133995D01*
X248530745Y-119059861D01*
X247702605Y-119888000D01*
X248530745Y-120716139D01*
X248776864Y-120642005D01*
X248797805Y-120583746D01*
X248845757Y-120699800D01*
X249249077Y-121103824D01*
X249685397Y-121285000D01*
X247931445Y-121285000D01*
X248277005Y-121141864D01*
X248351139Y-120895745D01*
X247523000Y-120067605D01*
X246694861Y-120895745D01*
X246768995Y-121141864D01*
X247167215Y-121285000D01*
X244091394Y-121285000D01*
X244293824Y-121082923D01*
X244512750Y-120555691D01*
X244513248Y-119984813D01*
X244383676Y-119671223D01*
X246076035Y-119671223D01*
X246103222Y-120241454D01*
X246269136Y-120642005D01*
X246515255Y-120716139D01*
X247343395Y-119888000D01*
X246515255Y-119059861D01*
X246269136Y-119133995D01*
X246076035Y-119671223D01*
X244383676Y-119671223D01*
X244295243Y-119457200D01*
X243891923Y-119053176D01*
X243475484Y-118880255D01*
X246694861Y-118880255D01*
X247523000Y-119708395D01*
X248351139Y-118880255D01*
X248277005Y-118634136D01*
X247739777Y-118441035D01*
X247169546Y-118468222D01*
X246768995Y-118634136D01*
X246694861Y-118880255D01*
X243475484Y-118880255D01*
X243364691Y-118834250D01*
X242793813Y-118833752D01*
X242266200Y-119051757D01*
X241862176Y-119455077D01*
X241808138Y-119585215D01*
X241755243Y-119457200D01*
X241351923Y-119053176D01*
X240824691Y-118834250D01*
X240253813Y-118833752D01*
X239726200Y-119051757D01*
X239322176Y-119455077D01*
X239268138Y-119585215D01*
X239215243Y-119457200D01*
X238811923Y-119053176D01*
X238284691Y-118834250D01*
X237713813Y-118833752D01*
X237186200Y-119051757D01*
X236782176Y-119455077D01*
X236601000Y-119891397D01*
X236601000Y-117289389D01*
X236647717Y-117336188D01*
X237193319Y-117562742D01*
X237784089Y-117563257D01*
X238330086Y-117337656D01*
X238709658Y-116958745D01*
X239963861Y-116958745D01*
X240037995Y-117204864D01*
X240575223Y-117397965D01*
X241145454Y-117370778D01*
X241546005Y-117204864D01*
X241620139Y-116958745D01*
X240792000Y-116130605D01*
X239963861Y-116958745D01*
X238709658Y-116958745D01*
X238748188Y-116920283D01*
X238974742Y-116374681D01*
X238975257Y-115783911D01*
X238954727Y-115734223D01*
X239345035Y-115734223D01*
X239372222Y-116304454D01*
X239538136Y-116705005D01*
X239784255Y-116779139D01*
X240612395Y-115951000D01*
X240971605Y-115951000D01*
X241799745Y-116779139D01*
X242045864Y-116705005D01*
X242214735Y-116235187D01*
X255104752Y-116235187D01*
X255322757Y-116762800D01*
X255726077Y-117166824D01*
X256253309Y-117385750D01*
X256824187Y-117386248D01*
X257351800Y-117168243D01*
X257755824Y-116764923D01*
X257974750Y-116237691D01*
X257975248Y-115666813D01*
X257757243Y-115139200D01*
X257353923Y-114735176D01*
X256826691Y-114516250D01*
X256255813Y-114515752D01*
X255728200Y-114733757D01*
X255324176Y-115137077D01*
X255105250Y-115664309D01*
X255104752Y-116235187D01*
X242214735Y-116235187D01*
X242238965Y-116167777D01*
X242211778Y-115597546D01*
X242045864Y-115196995D01*
X241799745Y-115122861D01*
X240971605Y-115951000D01*
X240612395Y-115951000D01*
X239784255Y-115122861D01*
X239538136Y-115196995D01*
X239345035Y-115734223D01*
X238954727Y-115734223D01*
X238749656Y-115237914D01*
X238455511Y-114943255D01*
X239963861Y-114943255D01*
X240792000Y-115771395D01*
X241620139Y-114943255D01*
X241546005Y-114697136D01*
X241008777Y-114504035D01*
X240438546Y-114531222D01*
X240037995Y-114697136D01*
X239963861Y-114943255D01*
X238455511Y-114943255D01*
X238332283Y-114819812D01*
X237786681Y-114593258D01*
X237195911Y-114592743D01*
X236649914Y-114818344D01*
X236601000Y-114867173D01*
X236601000Y-112513745D01*
X237042861Y-112513745D01*
X237116995Y-112759864D01*
X237654223Y-112952965D01*
X238224454Y-112925778D01*
X238625005Y-112759864D01*
X238699139Y-112513745D01*
X237871000Y-111685605D01*
X237042861Y-112513745D01*
X236601000Y-112513745D01*
X236601000Y-112221049D01*
X236617136Y-112260005D01*
X236863255Y-112334139D01*
X237691395Y-111506000D01*
X238050605Y-111506000D01*
X238878745Y-112334139D01*
X239124864Y-112260005D01*
X239317965Y-111722777D01*
X239290778Y-111152546D01*
X239124864Y-110751995D01*
X238878745Y-110677861D01*
X238050605Y-111506000D01*
X237691395Y-111506000D01*
X236863255Y-110677861D01*
X236617136Y-110751995D01*
X236601000Y-110796887D01*
X236601000Y-110498255D01*
X237042861Y-110498255D01*
X237871000Y-111326395D01*
X238699139Y-110498255D01*
X238625005Y-110252136D01*
X238087777Y-110059035D01*
X237517546Y-110086222D01*
X237116995Y-110252136D01*
X237042861Y-110498255D01*
X236601000Y-110498255D01*
X236601000Y-108742187D01*
X254469752Y-108742187D01*
X254687757Y-109269800D01*
X255091077Y-109673824D01*
X255618309Y-109892750D01*
X256189187Y-109893248D01*
X256716800Y-109675243D01*
X257120824Y-109271923D01*
X257339750Y-108744691D01*
X257340248Y-108173813D01*
X257122243Y-107646200D01*
X256718923Y-107242176D01*
X256191691Y-107023250D01*
X255620813Y-107022752D01*
X255093200Y-107240757D01*
X254689176Y-107644077D01*
X254470250Y-108171309D01*
X254469752Y-108742187D01*
X236601000Y-108742187D01*
X236601000Y-102861745D01*
X255076861Y-102861745D01*
X255150995Y-103107864D01*
X255688223Y-103300965D01*
X256258454Y-103273778D01*
X256659005Y-103107864D01*
X256733139Y-102861745D01*
X255905000Y-102033605D01*
X255076861Y-102861745D01*
X236601000Y-102861745D01*
X236601000Y-101637223D01*
X254458035Y-101637223D01*
X254485222Y-102207454D01*
X254651136Y-102608005D01*
X254897255Y-102682139D01*
X255725395Y-101854000D01*
X256084605Y-101854000D01*
X256912745Y-102682139D01*
X257158864Y-102608005D01*
X257351965Y-102070777D01*
X257324778Y-101500546D01*
X257158864Y-101099995D01*
X256912745Y-101025861D01*
X256084605Y-101854000D01*
X255725395Y-101854000D01*
X254897255Y-101025861D01*
X254651136Y-101099995D01*
X254458035Y-101637223D01*
X236601000Y-101637223D01*
X236601000Y-100584000D01*
X255189951Y-100584000D01*
X255150995Y-100600136D01*
X255150995Y-100600136D01*
G37*
X255150995Y-100600136D02*
X255076861Y-100846255D01*
X255905000Y-101674395D01*
X256733139Y-100846255D01*
X256659005Y-100600136D01*
X256614113Y-100584000D01*
X259207000Y-100584000D01*
X259207000Y-117880350D01*
X258530211Y-117879760D01*
X257745273Y-118204090D01*
X257144200Y-118804114D01*
X256818501Y-119588485D01*
X256817760Y-120437789D01*
X257142090Y-121222727D01*
X257204254Y-121285000D01*
X250439754Y-121285000D01*
X250874800Y-121105243D01*
X251278824Y-120701923D01*
X251497750Y-120174691D01*
X251497769Y-120152383D01*
X251521769Y-120152383D01*
X251724582Y-120643229D01*
X252099796Y-121019098D01*
X252590287Y-121222768D01*
X253121383Y-121223231D01*
X253612229Y-121020418D01*
X253809716Y-120823275D01*
X254641331Y-120823275D01*
X254703169Y-121059042D01*
X255204122Y-121235419D01*
X255734440Y-121206664D01*
X256090831Y-121059042D01*
X256152669Y-120823275D01*
X255397000Y-120067605D01*
X254641331Y-120823275D01*
X253809716Y-120823275D01*
X253988098Y-120645204D01*
X254120316Y-120326788D01*
X254225958Y-120581831D01*
X254461725Y-120643669D01*
X255217395Y-119888000D01*
X255576605Y-119888000D01*
X256332275Y-120643669D01*
X256568042Y-120581831D01*
X256744419Y-120080878D01*
X256715664Y-119550560D01*
X256568042Y-119194169D01*
X256332275Y-119132331D01*
X255576605Y-119888000D01*
X255217395Y-119888000D01*
X254461725Y-119132331D01*
X254225958Y-119194169D01*
X254128804Y-119470111D01*
X253989418Y-119132771D01*
X253809686Y-118952725D01*
X254641331Y-118952725D01*
X255397000Y-119708395D01*
X256152669Y-118952725D01*
X256090831Y-118716958D01*
X255589878Y-118540581D01*
X255059560Y-118569336D01*
X254703169Y-118716958D01*
X254641331Y-118952725D01*
X253809686Y-118952725D01*
X253614204Y-118756902D01*
X253123713Y-118553232D01*
X252592617Y-118552769D01*
X252101771Y-118755582D01*
X251725902Y-119130796D01*
X251522232Y-119621287D01*
X251521769Y-120152383D01*
X251497769Y-120152383D01*
X251498248Y-119603813D01*
X251280243Y-119076200D01*
X250876923Y-118672176D01*
X250349691Y-118453250D01*
X249778813Y-118452752D01*
X249251200Y-118670757D01*
X248847176Y-119074077D01*
X248799552Y-119188768D01*
X248776864Y-119133995D01*
X248530745Y-119059861D01*
X247702605Y-119888000D01*
X248530745Y-120716139D01*
X248776864Y-120642005D01*
X248797805Y-120583746D01*
X248845757Y-120699800D01*
X249249077Y-121103824D01*
X249685397Y-121285000D01*
X247931445Y-121285000D01*
X248277005Y-121141864D01*
X248351139Y-120895745D01*
X247523000Y-120067605D01*
X246694861Y-120895745D01*
X246768995Y-121141864D01*
X247167215Y-121285000D01*
X244091394Y-121285000D01*
X244293824Y-121082923D01*
X244512750Y-120555691D01*
X244513248Y-119984813D01*
X244383676Y-119671223D01*
X246076035Y-119671223D01*
X246103222Y-120241454D01*
X246269136Y-120642005D01*
X246515255Y-120716139D01*
X247343395Y-119888000D01*
X246515255Y-119059861D01*
X246269136Y-119133995D01*
X246076035Y-119671223D01*
X244383676Y-119671223D01*
X244295243Y-119457200D01*
X243891923Y-119053176D01*
X243475484Y-118880255D01*
X246694861Y-118880255D01*
X247523000Y-119708395D01*
X248351139Y-118880255D01*
X248277005Y-118634136D01*
X247739777Y-118441035D01*
X247169546Y-118468222D01*
X246768995Y-118634136D01*
X246694861Y-118880255D01*
X243475484Y-118880255D01*
X243364691Y-118834250D01*
X242793813Y-118833752D01*
X242266200Y-119051757D01*
X241862176Y-119455077D01*
X241808138Y-119585215D01*
X241755243Y-119457200D01*
X241351923Y-119053176D01*
X240824691Y-118834250D01*
X240253813Y-118833752D01*
X239726200Y-119051757D01*
X239322176Y-119455077D01*
X239268138Y-119585215D01*
X239215243Y-119457200D01*
X238811923Y-119053176D01*
X238284691Y-118834250D01*
X237713813Y-118833752D01*
X237186200Y-119051757D01*
X236782176Y-119455077D01*
X236601000Y-119891397D01*
X236601000Y-117289389D01*
X236647717Y-117336188D01*
X237193319Y-117562742D01*
X237784089Y-117563257D01*
X238330086Y-117337656D01*
X238709658Y-116958745D01*
X239963861Y-116958745D01*
X240037995Y-117204864D01*
X240575223Y-117397965D01*
X241145454Y-117370778D01*
X241546005Y-117204864D01*
X241620139Y-116958745D01*
X240792000Y-116130605D01*
X239963861Y-116958745D01*
X238709658Y-116958745D01*
X238748188Y-116920283D01*
X238974742Y-116374681D01*
X238975257Y-115783911D01*
X238954727Y-115734223D01*
X239345035Y-115734223D01*
X239372222Y-116304454D01*
X239538136Y-116705005D01*
X239784255Y-116779139D01*
X240612395Y-115951000D01*
X240971605Y-115951000D01*
X241799745Y-116779139D01*
X242045864Y-116705005D01*
X242214735Y-116235187D01*
X255104752Y-116235187D01*
X255322757Y-116762800D01*
X255726077Y-117166824D01*
X256253309Y-117385750D01*
X256824187Y-117386248D01*
X257351800Y-117168243D01*
X257755824Y-116764923D01*
X257974750Y-116237691D01*
X257975248Y-115666813D01*
X257757243Y-115139200D01*
X257353923Y-114735176D01*
X256826691Y-114516250D01*
X256255813Y-114515752D01*
X255728200Y-114733757D01*
X255324176Y-115137077D01*
X255105250Y-115664309D01*
X255104752Y-116235187D01*
X242214735Y-116235187D01*
X242238965Y-116167777D01*
X242211778Y-115597546D01*
X242045864Y-115196995D01*
X241799745Y-115122861D01*
X240971605Y-115951000D01*
X240612395Y-115951000D01*
X239784255Y-115122861D01*
X239538136Y-115196995D01*
X239345035Y-115734223D01*
X238954727Y-115734223D01*
X238749656Y-115237914D01*
X238455511Y-114943255D01*
X239963861Y-114943255D01*
X240792000Y-115771395D01*
X241620139Y-114943255D01*
X241546005Y-114697136D01*
X241008777Y-114504035D01*
X240438546Y-114531222D01*
X240037995Y-114697136D01*
X239963861Y-114943255D01*
X238455511Y-114943255D01*
X238332283Y-114819812D01*
X237786681Y-114593258D01*
X237195911Y-114592743D01*
X236649914Y-114818344D01*
X236601000Y-114867173D01*
X236601000Y-112513745D01*
X237042861Y-112513745D01*
X237116995Y-112759864D01*
X237654223Y-112952965D01*
X238224454Y-112925778D01*
X238625005Y-112759864D01*
X238699139Y-112513745D01*
X237871000Y-111685605D01*
X237042861Y-112513745D01*
X236601000Y-112513745D01*
X236601000Y-112221049D01*
X236617136Y-112260005D01*
X236863255Y-112334139D01*
X237691395Y-111506000D01*
X238050605Y-111506000D01*
X238878745Y-112334139D01*
X239124864Y-112260005D01*
X239317965Y-111722777D01*
X239290778Y-111152546D01*
X239124864Y-110751995D01*
X238878745Y-110677861D01*
X238050605Y-111506000D01*
X237691395Y-111506000D01*
X236863255Y-110677861D01*
X236617136Y-110751995D01*
X236601000Y-110796887D01*
X236601000Y-110498255D01*
X237042861Y-110498255D01*
X237871000Y-111326395D01*
X238699139Y-110498255D01*
X238625005Y-110252136D01*
X238087777Y-110059035D01*
X237517546Y-110086222D01*
X237116995Y-110252136D01*
X237042861Y-110498255D01*
X236601000Y-110498255D01*
X236601000Y-108742187D01*
X254469752Y-108742187D01*
X254687757Y-109269800D01*
X255091077Y-109673824D01*
X255618309Y-109892750D01*
X256189187Y-109893248D01*
X256716800Y-109675243D01*
X257120824Y-109271923D01*
X257339750Y-108744691D01*
X257340248Y-108173813D01*
X257122243Y-107646200D01*
X256718923Y-107242176D01*
X256191691Y-107023250D01*
X255620813Y-107022752D01*
X255093200Y-107240757D01*
X254689176Y-107644077D01*
X254470250Y-108171309D01*
X254469752Y-108742187D01*
X236601000Y-108742187D01*
X236601000Y-102861745D01*
X255076861Y-102861745D01*
X255150995Y-103107864D01*
X255688223Y-103300965D01*
X256258454Y-103273778D01*
X256659005Y-103107864D01*
X256733139Y-102861745D01*
X255905000Y-102033605D01*
X255076861Y-102861745D01*
X236601000Y-102861745D01*
X236601000Y-101637223D01*
X254458035Y-101637223D01*
X254485222Y-102207454D01*
X254651136Y-102608005D01*
X254897255Y-102682139D01*
X255725395Y-101854000D01*
X256084605Y-101854000D01*
X256912745Y-102682139D01*
X257158864Y-102608005D01*
X257351965Y-102070777D01*
X257324778Y-101500546D01*
X257158864Y-101099995D01*
X256912745Y-101025861D01*
X256084605Y-101854000D01*
X255725395Y-101854000D01*
X254897255Y-101025861D01*
X254651136Y-101099995D01*
X254458035Y-101637223D01*
X236601000Y-101637223D01*
X236601000Y-100584000D01*
X255189951Y-100584000D01*
X255150995Y-100600136D01*
M02*
