G04 #@! TF.FileFunction,Copper,L1,Top,Signal*
%FSLAX46Y46*%
G04 Gerber Fmt 4.6, Leading zero omitted, Abs format (unit mm)*
G04 Created by KiCad (PCBNEW 4.0.0-2.201511301921+6191~38~ubuntu15.10.1-stable) date Tue 01 Dec 2015 16:42:38 GMT*
%MOMM*%
G01*
G04 APERTURE LIST*
%ADD10C,0.100000*%
%ADD11C,1.700000*%
%ADD12C,1.600000*%
%ADD13C,1.400000*%
%ADD14C,2.999740*%
%ADD15C,0.250000*%
G04 APERTURE END LIST*
D10*
D11*
X237490000Y-116078000D03*
D12*
X247523000Y-119888000D03*
X250063000Y-119888000D03*
X240538000Y-120269000D03*
X243078000Y-120269000D03*
X237998000Y-120269000D03*
D13*
X252857000Y-119888000D03*
X255397000Y-119888000D03*
D12*
X256540000Y-115951000D03*
X240792000Y-115951000D03*
X256540000Y-94234000D03*
X240792000Y-94234000D03*
X237871000Y-111506000D03*
X237871000Y-98806000D03*
X255905000Y-101854000D03*
X255905000Y-108458000D03*
D14*
X258953000Y-120015000D03*
X236855000Y-93853000D03*
D15*
X252857000Y-119888000D02*
X252857000Y-120396000D01*
X252857000Y-120396000D02*
X251333000Y-121920000D01*
X251333000Y-121920000D02*
X242189000Y-121920000D01*
X242189000Y-121920000D02*
X240538000Y-120269000D01*
X237490000Y-116078000D02*
X237617000Y-116078000D01*
X237617000Y-116078000D02*
X240538000Y-118999000D01*
X240538000Y-118999000D02*
X240538000Y-120269000D01*
X237871000Y-98806000D02*
X240792000Y-98806000D01*
X243078000Y-101092000D02*
X243078000Y-109093000D01*
X240792000Y-98806000D02*
X243078000Y-101092000D01*
X256540000Y-115951000D02*
X256540000Y-112268000D01*
X243078000Y-109093000D02*
X243078000Y-120269000D01*
X245491000Y-106680000D02*
X243078000Y-109093000D01*
X257048000Y-106680000D02*
X245491000Y-106680000D01*
X258064000Y-107696000D02*
X257048000Y-106680000D01*
X258064000Y-110744000D02*
X258064000Y-107696000D01*
X256540000Y-112268000D02*
X258064000Y-110744000D01*
X255905000Y-108458000D02*
X253619000Y-108458000D01*
X250063000Y-112014000D02*
X250063000Y-119888000D01*
X253619000Y-108458000D02*
X250063000Y-112014000D01*
M02*
